<?xml version="1.0" encoding="UTF-8" standalone="no"?>
<!-- Created with Inkscape (http://www.inkscape.org/) -->

<svg
   width="78.285187mm"
   height="42.319874mm"
   viewBox="0 0 78.285187 42.319874"
   version="1.1"
   id="svg1"
   xml:space="preserve"
   inkscape:version="1.4 (e7c3feb100, 2024-10-09)"
   sodipodi:docname="progress.svg"
   xmlns:inkscape="http://www.inkscape.org/namespaces/inkscape"
   xmlns:sodipodi="http://sodipodi.sourceforge.net/DTD/sodipodi-0.dtd"
   xmlns="http://www.w3.org/2000/svg"
   xmlns:svg="http://www.w3.org/2000/svg"><sodipodi:namedview
     id="namedview1"
     pagecolor="#ffffff"
     bordercolor="#000000"
     borderopacity="0.25"
     inkscape:showpageshadow="2"
     inkscape:pageopacity="0.0"
     inkscape:pagecheckerboard="0"
     inkscape:deskcolor="#d1d1d1"
     inkscape:document-units="mm"
     inkscape:zoom="2.0208096"
     inkscape:cx="761.57596"
     inkscape:cy="682.89462"
     inkscape:window-width="1920"
     inkscape:window-height="1018"
     inkscape:window-x="0"
     inkscape:window-y="0"
     inkscape:window-maximized="1"
     inkscape:current-layer="layer1"><inkscape:page
       x="0"
       y="0"
       width="78.285187"
       height="42.319874"
       id="page2"
       margin="0"
       bleed="0" /></sodipodi:namedview><defs
     id="defs1" /><g
     inkscape:label="Layer 1"
     inkscape:groupmode="layer"
     id="layer1"
     transform="translate(-16.104314,-17.007511)"><path
       style="fill:#8d9d9a;fill-opacity:1;fill-rule:evenodd;stroke-width:0.633;stroke-linecap:round;stroke-miterlimit:0.9"
       d="m 22.388923,59.294652 c -0.473243,-10.64327 3.489006,-19.6357 8.487123,-25.23934 2.611869,-2.9283 5.96932,-5.62253 9.167846,-7.19618 4.907906,-2.41466 9.943218,-2.94333 15.254593,-3.50789 10.046266,0.64963 14.145506,2.71073 18.021956,5.17501 6.27716,5.27458 12.30474,10.52191 14.66409,24.48379 l 0.0982,6.21914 h 6.28461 c 0.40386,-13.2849 -4.72622,-24.37839 -14.2713,-33.38699 -10.73565,-7.34265 -18.08613,-9.61655 -29.917358,-8.6086 -8.623162,1.61894 -17.31312,4.76235 -24.811117,13.91124 -5.237277,6.32308 -8.770534,13.05456 -9.034129,19.63941 l -0.229123,8.54314 z"
       id="path1"
       sodipodi:nodetypes="cssccccccccccc" /></g></svg>
