<?xml version="1.0" encoding="UTF-8" standalone="no"?>
<!-- Created with Inkscape (http://www.inkscape.org/) -->

<svg
   width="78.285065mm"
   height="42.32mm"
   viewBox="0 0 78.285064 42.32"
   version="1.1"
   id="svg1"
   xml:space="preserve"
   inkscape:version="1.4 (e7c3feb100, 2024-10-09)"
   sodipodi:docname="new pro.svg"
   xmlns:inkscape="http://www.inkscape.org/namespaces/inkscape"
   xmlns:sodipodi="http://sodipodi.sourceforge.net/DTD/sodipodi-0.dtd"
   xmlns="http://www.w3.org/2000/svg"
   xmlns:svg="http://www.w3.org/2000/svg"><sodipodi:namedview
     id="namedview1"
     pagecolor="#ffffff"
     bordercolor="#000000"
     borderopacity="0.25"
     inkscape:showpageshadow="2"
     inkscape:pageopacity="0.0"
     inkscape:pagecheckerboard="0"
     inkscape:deskcolor="#d1d1d1"
     inkscape:document-units="mm"
     inkscape:zoom="2.0208096"
     inkscape:cx="761.57596"
     inkscape:cy="682.89462"
     inkscape:window-width="1920"
     inkscape:window-height="1018"
     inkscape:window-x="0"
     inkscape:window-y="0"
     inkscape:window-maximized="1"
     inkscape:current-layer="layer1"><inkscape:page
       x="1.0686436e-28"
       y="0"
       width="78.285065"
       height="42.32"
       id="page1"
       margin="0"
       bleed="0" /></sodipodi:namedview><defs
     id="defs1" /><g
     inkscape:label="Layer 1"
     inkscape:groupmode="layer"
     id="layer1"
     transform="translate(-115.04201,8.6077241)"><path
       d="m 153.72648,-8.5670029 c -8.56404,0.124026 -17.00966,3.189119 -23.98219,8.988867 -1.74143,1.4485159 -4.55716,4.3774579 -5.94945,6.1892179 -5.42261,7.056392 -8.30968,15.259544 -8.63225,24.524086 l -0.0838,2.405852 h 3.42961 3.43011 l 0.0812,-2.322951 c 0.30617,-8.743499 3.37533,-16.327034 9.08024,-22.435501 4.22356,-4.522329 9.18896,-7.563408 14.85957,-9.1015389 7.70148,-2.088988 15.48151,-1.278735 22.54629,2.3484659 5.26266,2.701941 9.37399,6.46696 12.63652,11.572222 3.47621,5.439641 5.27316,11.568459 5.30429,18.090408 l 0.01,1.983349 h 3.41683 3.41683 v -2.072636 c 0,-16.059935 -9.785,-31.0201086 -24.31319,-37.1719539 -4.93105,-2.088011 -10.11192,-3.072303 -15.25035,-2.997887 z"
       style="fill:#7137c8;fill-rule:evenodd;stroke:#000000;stroke-width:0.0736022;stroke-linecap:round;stroke-miterlimit:0.9;stroke-dasharray:none"
       id="path6"
       inkscape:export-filename="new pro.svg"
       inkscape:export-xdpi="96"
       inkscape:export-ydpi="96" /><path
       style="fill:none;stroke:#202020;stroke-width:0.474491"
       d="m 124.15974,32.10521 c 0.28165,-1.220665 0.24519,-2.651698 0.44365,-3.953084 0.29774,-1.951462 0.67827,-3.84076 1.18186,-5.738353 0.10344,-0.389765 0.22675,-0.759999 0.35198,-1.147668 0.23734,-0.734824 0.48006,-1.450032 0.7491,-2.167821 0.17826,-0.475646 0.3749,-0.934432 0.58195,-1.402713 0.17211,-0.38926 0.31542,-0.759712 0.49621,-1.147662 0.2265,-0.486163 0.48613,-0.921806 0.7397,-1.402707 2.1631,-4.101563 5.34501,-7.6919311 9.1746,-10.1947174 1.45367,-0.9499816 2.98195,-1.7729472 4.57308,-2.4296502 0.57604,-0.2377113 1.1455,-0.4809421 1.73037,-0.6796064 0.61293,-0.2081778 1.21866,-0.3818953 1.85392,-0.5478653 0.37502,-0.097954 0.73095,-0.1918107 1.11243,-0.286132 1.25226,-0.30962229 2.56717,-0.46382801 3.8314,-0.61781812 0.33656,-0.0409336 0.64226,-0.0325305 0.98881,-0.0368521 0.66962,-0.008455 1.01977,-0.12683839 1.7303,-0.12683839 0.74433,0 1.12806,0.12333091 1.85396,0.12723185 0.38436,0.001608 0.73583,0.003096 1.11242,0.0542705 1.53169,0.20810813 3.05808,0.40203907 4.57306,0.79089536 0.73917,0.1897373 1.50999,0.4145127 2.22471,0.6311008 0.33884,0.1026779 0.65203,0.2028737 0.98881,0.3337591 0.49988,0.1942859 0.98727,0.3822267 1.48311,0.5875057 5.62574,2.3288761 10.60536,6.3966403 13.96588,11.6297016 0.73869,1.150289 1.39046,2.334635 1.95745,3.57054 0.16066,0.350156 0.32137,0.669815 0.47683,1.02015 0.48044,1.082705 0.88075,2.31018 1.23153,3.442999 0.2255,0.728003 0.40931,1.433995 0.56288,2.167833 0.27013,1.290711 0.49385,2.639197 0.6632,3.953076 0.1733,1.344672 0.17606,2.696163 0.17606,4.080612"
       id="path27"
       inkscape:export-filename="over.svg"
       inkscape:export-xdpi="98.459999"
       inkscape:export-ydpi="98.459999" /></g></svg>
