<?xml version="1.0" encoding="UTF-8" standalone="no"?>
<!-- Created with Inkscape (http://www.inkscape.org/) -->

<svg
   width="78.285065mm"
   height="42.32mm"
   viewBox="0 0 78.285064 42.32"
   version="1.1"
   id="svg1"
   xml:space="preserve"
   inkscape:version="1.4 (e7c3feb100, 2024-10-09)"
   sodipodi:docname="new pro.svg"
   xmlns:inkscape="http://www.inkscape.org/namespaces/inkscape"
   xmlns:sodipodi="http://sodipodi.sourceforge.net/DTD/sodipodi-0.dtd"
   xmlns="http://www.w3.org/2000/svg"
   xmlns:svg="http://www.w3.org/2000/svg"><sodipodi:namedview
     id="namedview1"
     pagecolor="#ffffff"
     bordercolor="#000000"
     borderopacity="0.25"
     inkscape:showpageshadow="2"
     inkscape:pageopacity="0.0"
     inkscape:pagecheckerboard="0"
     inkscape:deskcolor="#d1d1d1"
     inkscape:document-units="mm"
     inkscape:zoom="2.0208096"
     inkscape:cx="761.57596"
     inkscape:cy="682.89462"
     inkscape:window-width="1920"
     inkscape:window-height="1018"
     inkscape:window-x="0"
     inkscape:window-y="0"
     inkscape:window-maximized="1"
     inkscape:current-layer="layer1"><inkscape:page
       x="1.0686436e-28"
       y="0"
       width="78.285065"
       height="42.32"
       id="page1"
       margin="0"
       bleed="0" /></sodipodi:namedview><defs
     id="defs1" /><g
     inkscape:label="Layer 1"
     inkscape:groupmode="layer"
     id="layer1"
     transform="translate(-115.04201,-0.89210581)"><path
       d="m 153.72648,0.9328257 c -8.56404,0.124026 -17.00966,3.189119 -23.98219,8.988867 -1.74143,1.4485163 -4.55716,4.3774583 -5.94945,6.1892183 -5.42261,7.056392 -8.30968,15.259544 -8.63225,24.524086 l -0.0838,2.405852 h 3.42961 3.43011 l 0.0812,-2.322951 c 0.30617,-8.743499 3.37533,-16.327034 9.08024,-22.435501 4.22356,-4.522329 9.18896,-7.563408 14.85957,-9.1015393 7.70148,-2.088988 15.48151,-1.278735 22.54629,2.3484663 5.26266,2.701941 9.37399,6.46696 12.63652,11.572222 3.47621,5.439641 5.27316,11.568459 5.30429,18.090408 l 0.01,1.983349 h 3.41683 3.41683 v -2.072636 c 0,-16.059935 -9.785,-31.020109 -24.31319,-37.1719543 -4.93105,-2.088011 -10.11192,-3.072303 -15.25035,-2.997887 z"
       style="fill:#7137c8;fill-rule:evenodd;stroke:#000000;stroke-width:0.0736022;stroke-linecap:round;stroke-miterlimit:0.9;stroke-dasharray:none"
       id="path6"
       inkscape:export-filename="new pro.png"
       inkscape:export-xdpi="96"
       inkscape:export-ydpi="96" /></g></svg>
