<?xml version="1.0" encoding="UTF-8" standalone="no"?>
<!-- Created with Inkscape (http://www.inkscape.org/) -->

<svg
   width="61.277679mm"
   height="32.626919mm"
   viewBox="0 0 61.277679 32.626919"
   version="1.1"
   id="svg1"
   xml:space="preserve"
   inkscape:version="1.4 (e7c3feb100, 2024-10-09)"
   sodipodi:docname="new pro.svg"
   xmlns:inkscape="http://www.inkscape.org/namespaces/inkscape"
   xmlns:sodipodi="http://sodipodi.sourceforge.net/DTD/sodipodi-0.dtd"
   xmlns="http://www.w3.org/2000/svg"
   xmlns:svg="http://www.w3.org/2000/svg"><sodipodi:namedview
     id="namedview1"
     pagecolor="#ffffff"
     bordercolor="#000000"
     borderopacity="0.25"
     inkscape:showpageshadow="2"
     inkscape:pageopacity="0.0"
     inkscape:pagecheckerboard="0"
     inkscape:deskcolor="#d1d1d1"
     inkscape:document-units="mm"
     inkscape:zoom="2.0208096"
     inkscape:cx="761.57596"
     inkscape:cy="682.89462"
     inkscape:window-width="1920"
     inkscape:window-height="1018"
     inkscape:window-x="0"
     inkscape:window-y="0"
     inkscape:window-maximized="1"
     inkscape:current-layer="layer1"><inkscape:page
       x="0"
       y="0"
       width="61.277679"
       height="32.626919"
       id="page1"
       margin="0"
       bleed="0" /></sodipodi:namedview><defs
     id="defs1" /><g
     inkscape:label="Layer 1"
     inkscape:groupmode="layer"
     id="layer1"
     transform="translate(-123.92857,0.01152222)"><path
       style="fill:none;stroke:#202020;stroke-width:0.474491"
       d="m 124.15974,32.10521 c 0.28165,-1.220665 0.24519,-2.651698 0.44365,-3.953084 0.29774,-1.951462 0.67827,-3.84076 1.18186,-5.738353 0.10344,-0.389765 0.22675,-0.759999 0.35198,-1.147668 0.23734,-0.734824 0.48006,-1.450032 0.7491,-2.167821 0.17826,-0.475646 0.3749,-0.934432 0.58195,-1.402713 0.17211,-0.38926 0.31542,-0.759712 0.49621,-1.147662 0.2265,-0.486163 0.48613,-0.921806 0.7397,-1.402707 2.1631,-4.101563 5.34501,-7.6919311 9.1746,-10.1947174 1.45367,-0.9499816 2.98195,-1.7729472 4.57308,-2.4296502 0.57604,-0.2377113 1.1455,-0.4809421 1.73037,-0.6796064 0.61293,-0.2081778 1.21866,-0.3818953 1.85392,-0.5478653 0.37502,-0.097954 0.73095,-0.1918107 1.11243,-0.286132 1.25226,-0.30962229 2.56717,-0.46382801 3.8314,-0.61781812 0.33656,-0.0409336 0.64226,-0.0325305 0.98881,-0.0368521 0.66962,-0.008455 1.01977,-0.12683839 1.7303,-0.12683839 0.74433,0 1.12806,0.12333091 1.85396,0.12723185 0.38436,0.001608 0.73583,0.003096 1.11242,0.0542705 1.53169,0.20810813 3.05808,0.40203907 4.57306,0.79089536 0.73917,0.1897373 1.50999,0.4145127 2.22471,0.6311008 0.33884,0.1026779 0.65203,0.2028737 0.98881,0.3337591 0.49988,0.1942859 0.98727,0.3822267 1.48311,0.5875057 5.62574,2.3288761 10.60536,6.3966403 13.96588,11.6297016 0.73869,1.150289 1.39046,2.334635 1.95745,3.57054 0.16066,0.350156 0.32137,0.669815 0.47683,1.02015 0.48044,1.082705 0.88075,2.31018 1.23153,3.442999 0.2255,0.728003 0.40931,1.433995 0.56288,2.167833 0.27013,1.290711 0.49385,2.639197 0.6632,3.953076 0.1733,1.344672 0.17606,2.696163 0.17606,4.080612"
       id="path27"
       inkscape:export-filename="over.svg"
       inkscape:export-xdpi="98.459999"
       inkscape:export-ydpi="98.459999" /></g></svg>
