<svg width="214" xmlns="http://www.w3.org/2000/svg" height="210" viewBox="7234 3145 214 210" fill="none"><g class="fills"><path d="M7351.188,3287.642C7350.998,3289.879,7350.735,3292.116,7350.369,3294.353C7347.879,3309.839,7340.286,3319.027,7336.298,3332.501C7331.526,3348.813,7347.757,3355.833,7361.602,3354.922C7368.649,3354.302,7375.547,3352.558,7382.030,3349.759C7387.794,3347.337,7393.243,3344.240,7398.260,3340.536C7433.282,3315.070,7426.124,3280.484,7387.620,3260.764C7385.348,3259.618,7382.919,3258.806,7380.410,3258.355C7378.880,3265.575,7375.248,3272.196,7369.961,3277.403L7369.961,3277.403C7364.812,3282.505,7358.301,3286.056,7351.188,3287.642ZZM7342.672,3221.085C7354.717,3221.085,7365.575,3228.254,7370.185,3239.249C7374.794,3250.244,7372.246,3262.900,7363.729,3271.315C7355.212,3279.730,7342.404,3282.248,7331.276,3277.693C7320.148,3273.139,7312.892,3262.410,7312.892,3250.509C7312.892,3234.258,7326.225,3221.085,7342.672,3221.085ZZM7380.393,3242.783C7382.587,3242.869,7384.799,3243.025,7386.993,3243.282C7402.771,3245.003,7412.384,3252.161,7426.177,3255.499C7442.895,3259.543,7449.286,3243.161,7447.789,3229.534C7446.836,3222.610,7444.748,3215.885,7441.606,3209.625C7438.902,3204.042,7435.534,3198.798,7431.575,3194.001C7404.269,3160.481,7369.630,3169.085,7351.379,3208.025C7350.613,3209.643,7350.028,3211.339,7349.638,3213.084C7357.296,3214.478,7364.343,3218.145,7369.839,3223.597L7369.839,3223.597C7375.138,3228.837,7378.770,3235.494,7380.288,3242.749ZM7333.546,3213.531C7333.546,3210.778,7333.772,3208.008,7334.086,3205.255C7335.828,3189.647,7343.003,3180.132,7346.277,3166.504C7350.439,3149.968,7333.825,3143.705,7320.049,3145.219C7313.040,3146.172,7306.235,3148.246,7299.901,3151.362C7294.255,3154.036,7288.957,3157.376,7284.122,3161.308C7250.320,3188.357,7259.062,3222.565,7298.438,3240.512C7300.521,3241.453,7302.724,3242.113,7304.986,3242.473C7308.106,3228.215,7319.200,3216.974,7333.546,3213.531ZZM7304.812,3257.564C7301.486,3257.607,7298.161,3257.469,7294.850,3257.151C7279.038,3255.637,7269.302,3248.685,7255.457,3245.570C7238.669,3241.785,7232.557,3258.286,7234.281,3271.880C7235.351,3278.787,7237.551,3285.476,7240.794,3291.686C7243.586,3297.236,7247.041,3302.435,7251.086,3307.172C7278.950,3340.158,7313.432,3331.038,7331.039,3291.840C7331.684,3290.362,7332.197,3288.830,7332.571,3287.263C7318.329,3283.427,7307.551,3271.896,7304.812,3257.564ZZ" class="cls-1" style="stroke-width: 0.440136; fill: rgb(113, 55, 200); fill-opacity: 1;"/></g><g class="strokes" style="stroke-width: 0.440136;"><g class="inner-stroke-shape"><defs><radialGradient id="b" cx=".5" cy=".5" r=".5" gradientTransform="matrix(-1.000000, 0.000000, -0.000000, -1.000000, 1.000000, 1.000000)"><stop offset="0"/><stop offset="1" stop-color="#3e0086" stop-opacity="0"/></radialGradient><clipPath id="c"><use href="#a"/></clipPath><path d="M7351.188,3287.642C7350.998,3289.879,7350.735,3292.116,7350.369,3294.353C7347.879,3309.839,7340.286,3319.027,7336.298,3332.501C7331.526,3348.813,7347.757,3355.833,7361.602,3354.922C7368.649,3354.302,7375.547,3352.558,7382.030,3349.759C7387.794,3347.337,7393.243,3344.240,7398.260,3340.536C7433.282,3315.070,7426.124,3280.484,7387.620,3260.764C7385.348,3259.618,7382.919,3258.806,7380.410,3258.355C7378.880,3265.575,7375.248,3272.196,7369.961,3277.403L7369.961,3277.403C7364.812,3282.505,7358.301,3286.056,7351.188,3287.642ZZM7342.672,3221.085C7354.717,3221.085,7365.575,3228.254,7370.185,3239.249C7374.794,3250.244,7372.246,3262.900,7363.729,3271.315C7355.212,3279.730,7342.404,3282.248,7331.276,3277.693C7320.148,3273.139,7312.892,3262.410,7312.892,3250.509C7312.892,3234.258,7326.225,3221.085,7342.672,3221.085ZZM7380.393,3242.783C7382.587,3242.869,7384.799,3243.025,7386.993,3243.282C7402.771,3245.003,7412.384,3252.161,7426.177,3255.499C7442.895,3259.543,7449.286,3243.161,7447.789,3229.534C7446.836,3222.610,7444.748,3215.885,7441.606,3209.625C7438.902,3204.042,7435.534,3198.798,7431.575,3194.001C7404.269,3160.481,7369.630,3169.085,7351.379,3208.025C7350.613,3209.643,7350.028,3211.339,7349.638,3213.084C7357.296,3214.478,7364.343,3218.145,7369.839,3223.597L7369.839,3223.597C7375.138,3228.837,7378.770,3235.494,7380.288,3242.749ZM7333.546,3213.531C7333.546,3210.778,7333.772,3208.008,7334.086,3205.255C7335.828,3189.647,7343.003,3180.132,7346.277,3166.504C7350.439,3149.968,7333.825,3143.705,7320.049,3145.219C7313.040,3146.172,7306.235,3148.246,7299.901,3151.362C7294.255,3154.036,7288.957,3157.376,7284.122,3161.308C7250.320,3188.357,7259.062,3222.565,7298.438,3240.512C7300.521,3241.453,7302.724,3242.113,7304.986,3242.473C7308.106,3228.215,7319.200,3216.974,7333.546,3213.531ZZM7304.812,3257.564C7301.486,3257.607,7298.161,3257.469,7294.850,3257.151C7279.038,3255.637,7269.302,3248.685,7255.457,3245.570C7238.669,3241.785,7232.557,3258.286,7234.281,3271.880C7235.351,3278.787,7237.551,3285.476,7240.794,3291.686C7243.586,3297.236,7247.041,3302.435,7251.086,3307.172C7278.950,3340.158,7313.432,3331.038,7331.039,3291.840C7331.684,3290.362,7332.197,3288.830,7332.571,3287.263C7318.329,3283.427,7307.551,3271.896,7304.812,3257.564ZZ" id="a" style="fill: none; stroke-width: 2; stroke: url(&quot;#b&quot;);"/></defs><use href="#a" clip-path="url('#c')"/></g></g></svg>