<svg width="56.019" xmlns="http://www.w3.org/2000/svg" height="55" fill="none"><g style="fill: rgb(0, 0, 0);"><path d="M11.222,36.575C12.009,37.575,11.823,39.012,10.805,39.786C8.490,41.536,7.372,44.414,7.911,47.233C10.782,47.762,13.714,46.664,15.495,44.391C16.000,43.727,16.830,43.383,17.667,43.489C18.503,43.596,19.216,44.138,19.531,44.906C19.846,45.675,19.714,46.550,19.187,47.196C15.916,51.361,10.295,53.002,5.238,51.266C4.566,51.036,4.038,50.517,3.803,49.857C2.034,44.892,3.705,39.373,7.948,36.162C8.968,35.388,10.433,35.571,11.222,36.575ZZ" fill-rule="evenodd" clip-rule="evenodd" style="fill: rgb(117, 120, 125);" class="fills"/><path d="M14.789,33.611C16.828,36.172,19.177,38.478,21.785,40.480L21.785,52.708C21.785,53.973,22.831,55.000,24.119,55.000C29.026,55.001,33.645,52.730,36.584,48.872C39.523,45.015,40.436,40.022,39.048,35.402C49.939,27.788,56.289,15.378,56.010,2.255C55.985,1.024,54.975,0.033,53.722,0.009C40.355,-0.267,27.714,5.968,19.958,16.662C15.253,15.300,10.169,16.198,6.240,19.083C2.312,21.968,-0.001,26.503,0.000,31.319C0.003,32.584,1.049,33.611,2.337,33.611L14.789,33.611ZZM37.346,24.444C40.784,24.444,43.570,21.708,43.570,18.333C43.570,14.958,40.784,12.222,37.346,12.222C33.908,12.222,31.122,14.958,31.122,18.333C31.122,21.708,33.908,24.444,37.346,24.444ZZ" fill-rule="evenodd" clip-rule="evenodd" style="fill: rgb(117, 120, 125);" class="fills"/></g></svg>