<svg width="56.019" xmlns="http://www.w3.org/2000/svg" height="50" fill="none"><g style="fill: rgb(0, 0, 0);"><path d="M18.829,18.750C24.062,18.750,28.304,14.553,28.304,9.375C28.304,4.197,24.062,0.000,18.829,0.000C13.596,0.000,9.354,4.197,9.354,9.375C9.354,14.553,13.596,18.750,18.829,18.750ZZM42.517,21.875C46.877,21.875,50.413,18.377,50.413,14.063C50.413,9.748,46.877,6.250,42.517,6.250C38.156,6.250,34.621,9.748,34.621,14.063C34.621,18.377,38.156,21.875,42.517,21.875ZZM1.821,45.087C0.557,44.308,-0.142,42.880,0.024,41.416C1.229,32.048,9.285,25.027,18.829,25.027C28.373,25.027,36.429,32.048,37.634,41.416C37.817,42.875,37.091,44.291,35.834,45.084C30.759,48.302,24.856,50.008,18.829,50.000C12.801,50.010,6.897,48.305,1.821,45.087ZZM42.517,43.750L42.182,43.750C42.403,42.822,42.460,41.841,42.334,40.834C41.794,36.538,40.057,32.476,37.318,29.100C40.879,27.714,44.855,27.806,48.346,29.356C51.837,30.906,54.550,33.784,55.870,37.337C56.285,38.496,55.807,39.782,54.733,40.400C51.047,42.599,46.822,43.758,42.517,43.750ZZ" style="fill: rgb(118, 121, 126); fill-opacity: 1;" class="fills"/></g></svg>