<svg width="56.019" xmlns="http://www.w3.org/2000/svg" height="55" fill="none"><g style="fill: rgb(0, 0, 0);"><path d="M9.215,5.621C9.971,2.324,12.787,-0.000,16.025,0.000L39.994,0.000C43.232,-0.000,46.047,2.324,46.803,5.621L53.722,35.812C52.230,35.163,50.631,34.831,49.016,34.833L7.002,34.833C5.336,34.833,3.746,35.182,2.297,35.812L9.215,5.621ZZ" style="fill: rgb(118, 121, 126); fill-opacity: 1;" class="fills"/><path d="M7.002,40.333C3.135,40.333,0.000,43.617,0.000,47.667C0.000,51.717,3.135,55.000,7.002,55.000L49.016,55.000C52.883,55.000,56.019,51.717,56.019,47.667C56.019,43.617,52.883,40.333,49.016,40.333L7.002,40.333ZZM46.355,47.667C46.355,46.148,47.531,44.917,48.981,44.917L49.016,44.917C50.466,44.917,51.642,46.148,51.642,47.667L51.642,47.703C51.642,49.222,50.466,50.453,49.016,50.453L48.981,50.453C47.531,50.453,46.355,49.222,46.355,47.667ZL46.355,47.667ZZM38.478,44.917C37.027,44.917,35.852,46.148,35.852,47.667L35.852,47.703C35.852,49.221,37.028,50.453,38.478,50.453L38.513,50.453C39.963,50.453,41.139,49.222,41.139,47.703L41.139,47.667C41.139,46.148,39.963,44.917,38.478,44.917ZL38.478,44.917ZZ" fill-rule="evenodd" clip-rule="evenodd" style="fill: rgb(118, 121, 126); fill-opacity: 1;" class="fills"/></g></svg>