<svg width="56.019" xmlns="http://www.w3.org/2000/svg" height="55" fill="none"><g style="fill: rgb(0, 0, 0);"><path d="M27.515,0.000C24.884,0.000,22.634,1.870,22.201,4.420L21.939,5.968C21.792,6.759,21.226,7.413,20.454,7.683C19.990,7.854,19.532,8.040,19.081,8.242C18.340,8.587,17.469,8.518,16.794,8.061L15.493,7.147C13.350,5.644,10.414,5.883,8.552,7.711L7.854,8.397C5.992,10.225,5.749,13.107,7.280,15.211L8.210,16.489C8.676,17.151,8.746,18.007,8.394,18.734C8.189,19.177,7.999,19.626,7.825,20.082C7.550,20.840,6.884,21.395,6.079,21.540L4.499,21.800C1.903,22.226,0.001,24.431,0.000,27.015L0.000,27.985C0.000,30.569,1.905,32.777,4.502,33.203L6.079,33.460C6.886,33.592,7.538,34.165,7.825,34.918C7.998,35.375,8.190,35.823,8.394,36.266C8.746,36.993,8.676,37.849,8.210,38.511L7.280,39.789C5.749,41.893,5.992,44.775,7.854,46.603L8.552,47.289C10.414,49.116,13.350,49.356,15.493,47.853L16.794,46.939C17.469,46.482,18.340,46.413,19.081,46.758C19.532,46.959,19.989,47.145,20.454,47.317C21.221,47.599,21.804,48.239,21.939,49.032L22.203,50.583C22.634,53.130,24.881,55.000,27.515,55.000L28.503,55.000C31.135,55.000,33.384,53.130,33.818,50.580L34.079,49.032C34.227,48.241,34.793,47.587,35.565,47.317C36.029,47.146,36.487,46.960,36.938,46.758C37.678,46.413,38.550,46.482,39.224,46.939L40.526,47.853C42.669,49.356,45.604,49.117,47.466,47.289L48.164,46.603C50.026,44.776,50.270,41.893,48.739,39.789L47.808,38.511C47.343,37.849,47.272,36.993,47.624,36.266C47.828,35.823,48.018,35.375,48.193,34.918C48.480,34.165,49.133,33.592,49.940,33.460L51.520,33.203C54.117,32.777,56.019,30.570,56.019,27.985L56.019,27.015C56.019,24.431,54.114,22.223,51.517,21.797L49.940,21.540C49.134,21.395,48.468,20.840,48.193,20.082C48.019,19.626,47.830,19.177,47.624,18.734C47.272,18.007,47.343,17.151,47.808,16.489L48.739,15.211C50.270,13.107,50.027,10.225,48.164,8.397L47.466,7.711C45.604,5.883,42.669,5.644,40.526,7.147L39.224,8.061C38.550,8.518,37.678,8.587,36.938,8.242C36.487,8.040,36.029,7.854,35.565,7.683C34.793,7.413,34.227,6.759,34.079,5.968L33.818,4.417C33.384,1.867,31.136,-0.001,28.503,0.000L27.515,0.000ZZM28.009,38.077C33.959,38.077,38.782,33.341,38.782,27.500C38.782,21.659,33.959,16.923,28.009,16.923C22.060,16.923,17.236,21.659,17.236,27.500C17.236,33.341,22.060,38.077,28.009,38.077ZZ" fill-rule="evenodd" clip-rule="evenodd" style="fill: rgb(117, 120, 125); fill-opacity: 1;" class="fills"/></g></svg>